<svg xmlns="http://www.w3.org/2000/svg" version="1.1" xmlns:xlink="http://www.w3.org/1999/xlink" xmlns:svgjs="http://svgjs.dev/svgjs" viewBox="0 0 1422 800"><defs><filter id="uuunion-blur" x="-100%" y="-100%" width="400%" height="400%" color-interpolation-filters="sRGB">
        <feGaussianBlur in="SourceGraphic" stdDeviation="7.5 0" result="blur"></feGaussianBlur>
        <feDropShadow stdDeviation="25.846153846153847" in="blur" dx="21" dy="21" flood-color="hsl(331, 90%, 56%)" flood-opacity="0.5" x="0%" y="0%" width="100%" height="100%"></feDropShadow>
      </filter><filter id="uuunion-blur2" x="-100%" y="-100%" width="400%" height="400%" color-interpolation-filters="sRGB">
        <feGaussianBlur in="SourceGraphic" stdDeviation="7.5 0" result="blur"></feGaussianBlur>
        <feDropShadow stdDeviation="25.846153846153847" in="blur" dx="-21" dy="-21" flood-color="hsl(331, 90%, 56%)" flood-opacity="0.5" x="0%" y="0%" width="100%" height="100%"></feDropShadow>
      </filter><linearGradient gradientTransform="rotate(0, 0.5, 0.5)" x1="50%" y1="0%" x2="50%" y2="100%" id="uuunion-grad"><stop stop-color="hsl(206, 75%, 49%)" offset="10%"></stop><stop stop-color="hsl(331, 90%, 56%)" offset="90%"></stop></linearGradient><linearGradient gradientTransform="rotate(166, 0.5, 0.5)" x1="50%" y1="0%" x2="50%" y2="100%" id="uuunion-grad2"><stop stop-color="hsl(206, 75%, 49%)" offset="25%"></stop><stop stop-color="hsl(331, 90%, 56%)" offset="100%"></stop></linearGradient><linearGradient gradientTransform="rotate(333, 0.5, 0.5)" x1="50%" y1="0%" x2="50%" y2="100%" id="uuunion-grad3"><stop stop-color="hsl(206, 75%, 49%)" offset="0%"></stop><stop stop-color="hsl(331, 90%, 56%)" offset="75%"></stop></linearGradient></defs><path d="M-141.89 -90.82Q-128.56 -89.87 -115.23 -88.16 -101.9 -85.82 -88.57 -83.04 -75.25 -80.03 -61.92 -77.01 -48.59 -74.22 -35.26 -71.88 -21.94 -70.15 -8.61 -69.18 4.71 -69.04 18.04 -69.74 31.37 -71.23 44.69 -73.38 58.02 -76.05 71.35 -79.01 84.68 -82.05 98.01 -84.94 111.33 -87.44 124.66 -89.38 137.99 -90.59 151.32 -90.99 164.65 -90.55 177.97 -89.31 191.3 -87.34 204.63 -84.82 217.96 -81.92 231.29 -78.88 244.61 -75.92 257.94 -73.27 271.27 -71.14 284.6 -69.69 297.93 -69.03 311.25 -69.21 324.58 -70.21 337.91 -71.97 351.24 -74.34 364.57 -77.14 377.89 -80.16 391.22 -83.17 404.55 -85.94 417.88 -88.25 431.21 -89.93 444.53 -90.84 457.86 -90.93 471.19 -90.17 484.52 -88.64 497.84 -86.45 511.17 -83.76 524.5 -80.78 537.83 -77.74 551.16 -74.87 564.48 -72.4 577.81 -70.51 591.14 -69.35 604.47 -69 617.8 -69.49 631.12 -70.79 644.45 -72.8 657.78 -75.35 671.11 -78.27 684.44 -81.31 697.76 -84.25 711.09 -86.87 724.42 -88.96 737.75 -90.37 751.08 -90.97 764.4 -90.74 777.73 -89.68 791.06 -87.88 804.39 -85.48 817.72 -82.66 831.04 -79.63 844.37 -76.63 857.7 -73.89 871.03 -71.61 884.36 -69.98 897.68 -69.12 911.01 -69.09 924.34 -69.89 937.67 -71.47 951 -73.71 964.32 -76.42 977.65 -79.41 990.98 -82.44 1004.31 -85.29 1017.64 -87.73 1030.97 -89.58 1044.29 -90.69 1057.62 -90.99 1070.95 -90.44 1084.28 -89.09 1097.61 -87.04 1110.93 -84.45 1124.26 -81.53 1137.59 -78.48 1150.92 -75.55 1164.25 -72.96 1177.57 -70.91 1190.9 -69.56 1204.23 -69.01 1217.56 -69.29 1230.89 -70.4 1244.21 -72.25 1257.54 -74.68 1270.87 -77.53 1284.2 -80.56 1297.53 -83.55 1310.85 -86.27 1324.18 -88.51 1337.51 -90.09 1350.84 -90.9 1364.17 -90.88 1377.49 -90.02 1390.82 -88.39 1404.15 -86.12 1417.48 -83.38 1430.81 -80.38 1444.13 -77.35 1457.46 -74.52 1470.79 -72.12 1484.12 -70.31 1497.45 -69.25 1510.77 -69.02 1524.1 -69.62 1537.43 -71.02 1550.76 -73.1 1564.09 -75.72 1564.43 -60.79 1564.69 -45.87 1564.76 -30.94 1564.61 -16.01 1564.31 -1.08 1563.97 13.83 1563.71 28.76 1563.63 43.69 1563.77 58.61 1564.07 73.54 1564.42 88.47 1564.68 103.4 1564.76 118.32 1564.63 133.25 1564.33 148.18 1563.98 163.1 1563.72 178.03 1563.63 192.96 1563.76 207.89 1564.05 222.81 1564.4 237.74 1564.67 252.67 1564.76 267.59 1564.64 282.52 1564.35 297.45 1564 312.38 1563.73 327.3 1563.63 342.23 1563.75 357.16 1564.03 372.08 1564.38 387.01 1564.66 401.94 1564.76 416.87 1564.65 431.79 1564.37 446.72 1564.02 461.65 1563.74 476.57 1563.63 491.5 1563.73 506.43 1564.01 521.36 1564.36 536.28 1564.65 551.21 1564.76 566.14 1564.66 581.06 1564.38 595.99 1564.04 610.92 1563.75 625.85 1563.63 640.77 1563.72 655.7 1564 670.63 1564.34 685.55 1564.64 700.48 1564.76 715.41 1564.67 730.34 1564.4 745.26 1564.05 760.19 1563.76 775.12 1563.63 790.04 1563.71 804.97 1563.98 819.9 1564.33 834.82 1564.62 849.75 1564.76 864.68 1564.68 879.61 1551.34 879.37 1537.99 879.18 1524.64 879.05 1511.3 879 1497.95 879.02 1484.61 879.11 1471.26 879.28 1457.92 879.5 1444.57 879.75 1431.23 880.03 1417.88 880.3 1404.53 880.55 1391.19 880.76 1377.84 880.91 1364.5 880.98 1351.15 880.99 1337.81 880.91 1324.46 880.77 1311.12 880.57 1297.77 880.32 1284.42 880.05 1271.08 879.77 1257.73 879.51 1244.39 879.29 1231.04 879.12 1217.7 879.02 1204.35 879 1191.01 879.05 1177.66 879.17 1164.32 879.36 1150.97 879.59 1137.62 879.86 1124.28 880.13 1110.93 880.4 1097.59 880.64 1084.24 880.82 1070.9 880.94 1057.55 880.99 1044.21 880.97 1030.86 880.87 1017.51 880.7 1004.17 880.48 990.82 880.22 977.48 879.94 964.13 879.67 950.79 879.42 937.44 879.22 924.1 879.08 910.75 879 897.41 879.01 884.06 879.08 870.71 879.23 857.37 879.44 844.02 879.69 830.68 879.96 817.33 880.24 803.99 880.49 790.64 880.71 777.3 880.88 763.95 880.97 750.6 880.99 737.26 880.94 723.91 880.81 710.57 880.62 697.22 880.38 683.88 880.11 670.53 879.84 657.19 879.57 643.84 879.34 630.5 879.16 617.15 879.04 603.8 879 590.46 879.03 577.11 879.13 563.77 879.3 550.42 879.53 537.08 879.79 523.73 880.07 510.39 880.34 497.04 880.58 483.7 880.78 470.35 880.92 457 880.99 443.66 880.98 430.31 880.9 416.97 880.75 403.62 880.54 390.28 880.28 376.93 880.01 363.59 879.74 350.24 879.48 336.9 879.27 323.55 879.11 310.2 879.01 296.86 879 283.51 879.06 270.17 879.19 256.82 879.38 243.48 879.62 230.13 879.89 216.79 880.17 203.44 880.43 190.1 880.66 176.75 880.84 163.4 880.95 150.06 880.99 136.71 880.96 123.37 880.85 110.02 880.67 96.68 880.44 83.33 880.18 69.99 879.91 56.64 879.64 43.3 879.39 29.95 879.2 16.6 879.06 3.26 879 -10.08 879.01 -23.42 879.1 -36.77 879.26 -50.11 879.47 -63.46 879.72 -76.8 880 -90.15 880.27 -103.49 880.52 -116.84 880.74 -130.18 880.89 -143.53 880.98 -143.75 865.79 -143.37 850.61 -142.55 835.43 -141.59 820.24 -140.85 805.06 -140.62 789.87 -140.98 774.69 -141.8 759.5 -142.76 744.32 -143.5 729.13 -143.75 713.95 -143.4 698.77 -142.6 683.58 -141.64 668.4 -140.88 653.21 -140.62 638.03 -140.95 622.84 -141.75 607.66 -142.71 592.47 -143.47 577.29 -143.75 562.1 -143.44 546.92 -142.65 531.74 -141.69 516.55 -140.91 501.37 -140.62 486.18 -140.92 471 -141.7 455.81 -142.66 440.63 -143.44 425.44 -143.75 410.26 -143.47 395.08 -142.7 379.89 -141.74 364.71 -140.94 349.52 -140.62 334.34 -140.89 319.15 -141.65 303.97 -142.61 288.78 -143.41 273.6 -143.75 258.41 -143.5 243.23 -142.75 228.05 -141.79 212.86 -140.97 197.68 -140.62 182.49 -140.86 167.31 -141.6 152.12 -142.56 136.94 -143.38 121.75 -143.75 106.57 -143.52 91.39 -142.8 76.2 -141.84 61.02 -141.01 45.83 -140.63 30.65 -140.83 15.46 -141.55 0.28 -142.51 -14.9 -143.34 -30.08 -143.74 -45.27 -143.55 -60.45 -142.84 -75.63 -141.89 -90.82" fill="url(#uuunion-grad)"></path><path d="M-141.9 -90.82Q-142.85 -75.63 -143.56 -60.45 -143.75 -45.27 -143.35 -30.08 -142.52 -14.9 -141.56 0.28 -140.84 15.46 -140.64 30.65 -141.02 45.83 -141.85 61.02 -142.81 76.2 -143.53 91.38 -143.76 106.57 -143.39 121.75 -142.57 136.94 -141.61 152.12 -140.87 167.31 -140.63 182.49 -140.98 197.68 -141.8 212.86 -142.76 228.05 -143.51 243.23 -143.76 258.41 -143.42 273.6 -142.62 288.78 -141.66 303.97 -140.9 319.15 -140.63 334.34 -140.95 349.52 -141.75 364.71 -138.64 387.61 -125.68 395.73 -116.79 396.28 -107.89 396.96 -98.99 397.75 -90.1 398.61 -81.2 399.52 -72.3 400.44 -63.41 401.35 -54.51 402.21 -45.61 403 -36.72 403.69 -27.82 404.24 -18.92 404.66 -2.11 404.97 0.85 404.99 12.07 401.72 23.3 398.19 34.54 394.42 45.8 390.43 57.05 386.27 68.32 381.99 79.58 377.65 90.84 373.33 102.1 369.07 113.34 364.95 124.58 361.01 135.8 357.32 147.01 353.89 158.2 350.75 169.38 347.91 180.54 345.35 191.67 343.04 202.79 340.96 213.89 339.04 224.97 337.21 236.03 335.43 247.07 333.6 258.1 331.67 269.11 329.56 280.11 327.22 291.1 324.6 302.08 321.67 313.05 318.43 324.02 314.86 334.99 311 345.95 306.87 356.92 302.52 367.9 298.03 378.88 293.46 389.87 288.88 400.87 284.38 411.88 280.03 422.9 275.9 433.94 272.04 444.99 268.5 456.06 265.3 467.14 262.45 478.23 259.94 489.34 257.75 500.46 255.82 511.59 254.09 522.73 252.5 533.88 250.95 545.04 249.38 556.21 247.68 567.38 245.79 578.56 243.64 589.74 241.17 600.92 238.35 612.09 235.14 623.27 231.56 634.44 227.63 645.6 223.37 656.76 218.86 667.91 214.16 679.05 209.35 690.19 204.53 701.31 199.78 712.43 195.19 723.54 190.84 734.63 186.8 745.72 183.13 756.81 179.85 767.88 176.98 778.95 174.5 790.01 172.4 801.07 170.61 812.12 169.06 823.17 167.69 834.22 166.39 845.27 165.06 856.32 163.62 867.37 161.96 878.42 160.02 889.48 157.71 900.54 155 911.6 151.86 922.67 148.29 933.75 144.3 944.83 139.94 955.91 135.27 967 130.37 978.09 125.33 989.19 120.26 1000.29 115.26 1011.4 110.42 1022.5 105.85 1033.61 101.62 1044.72 97.79 1055.83 94.41 1066.94 91.49 1078.05 89.03 1089.16 86.99 1100.26 85.33 1111.37 83.96 1122.47 82.79 1133.56 81.73 1144.65 80.66 1155.74 79.47 1166.83 78.06 1177.91 76.33 1188.98 74.21 1200.06 71.64 1211.13 68.58 1222.21 65.03 1233.28 61.01 1244.35 56.56 1255.42 51.75 1266.49 46.67 1277.57 41.41 1288.65 36.09 1299.73 30.83 1310.81 25.74 1321.91 20.93 1333 16.49 1344.11 12.49 1355.22 8.99 1366.33 6 1377.45 3.53 1388.58 1.55 1399.71 0 1410.85 -1.21 1422 -2.18 1422.25 -19.73 1422.38 -37.27 1422.31 -54.82 1422.08 -72.37 1421.81 -89.92 1421.63 -107.47 1421.64 -125.01 1421.83 -142.56 1409.52 -145.39 1397.21 -147.86 1384.91 -149.82 1372.6 -151.13 1360.3 -151.72 1347.99 -151.54 1335.69 -150.6 1323.38 -148.97 1311.07 -146.75 1298.77 -144.09 1286.46 -141.17 1274.16 -138.16 1261.85 -135.28 1249.54 -132.7 1237.24 -130.6 1224.93 -129.12 1212.63 -128.35 1200.32 -128.34 1188.02 -129.09 1175.71 -130.56 1163.4 -132.64 1151.1 -135.21 1138.79 -138.08 1126.49 -141.09 1114.18 -144.02 1101.87 -146.69 1089.57 -148.92 1077.26 -150.57 1064.96 -151.52 1052.65 -151.72 1040.35 -151.16 1028.04 -149.86 1015.73 -147.92 1003.43 -145.46 991.12 -142.64 978.82 -139.65 966.51 -136.68 954.21 -133.93 941.9 -131.57 929.59 -129.77 917.29 -128.64 904.98 -128.25 892.68 -128.62 880.37 -129.75 868.06 -131.54 855.76 -133.89 843.45 -136.63 831.15 -139.6 818.84 -142.59 806.54 -145.41 794.23 -147.88 781.92 -149.83 769.62 -151.14 757.31 -151.72 745.01 -151.53 732.7 -150.59 720.39 -148.95 708.09 -146.73 695.78 -144.07 683.48 -141.14 671.17 -138.13 658.87 -135.25 646.56 -132.68 634.25 -130.58 621.95 -129.11 609.64 -128.34 597.34 -128.34 585.03 -129.1 572.73 -130.57 560.42 -132.66 548.11 -135.23 535.81 -138.12 523.5 -141.12 511.2 -144.05 498.89 -146.72 486.58 -148.94 474.28 -150.58 461.97 -151.53 449.67 -151.72 437.36 -151.15 425.06 -149.84 412.75 -147.89 400.44 -145.43 388.14 -142.61 375.83 -139.61 363.53 -136.65 351.22 -133.9 338.91 -131.55 326.61 -129.75 314.3 -128.63 302 -128.25 289.69 -128.63 277.39 -129.76 265.08 -131.56 252.77 -133.91 240.47 -136.66 228.16 -139.63 215.86 -142.62 203.55 -145.44 191.25 -147.9 178.94 -149.85 166.63 -151.15 154.33 -151.72 142.02 -151.53 129.72 -150.57 117.41 -148.93 105.1 -146.7 92.8 -144.04 80.49 -141.1 68.19 -138.1 55.88 -135.22 43.58 -132.65 31.27 -130.57 18.96 -129.1 6.66 -128.34 -5.64 -128.34 -17.94 -129.11 -30.25 -130.59 -42.56 -132.69 -54.86 -135.26 -67.17 -138.15 -79.47 -141.15 -91.78 -144.08 -104.08 -146.74 -116.39 -148.96 -128.7 -150.59 -145.33 -144.05 -146.53 -121.35 -144 -106.11 -141.9 -90.82" fill="url(#uuunion-grad2)" filter="url(#uuunion-blur)"></path><path d="M1421.73 318.68Q1430.61 319.79 1439.48 320.89 1448.36 321.97 1457.24 322.98 1466.12 323.89 1475 324.66 1483.88 325.28 1492.76 325.71 1501.64 325.95 1510.52 325.98 1519.4 325.81 1528.28 325.45 1537.16 324.89 1546.04 324.17 1554.92 323.31 1563.8 322.33 1563.63 339.74 1563.75 357.16 1564.09 374.57 1564.49 391.99 1564.74 409.4 1564.71 426.82 1564.42 444.23 1564.02 461.65 1563.7 479.06 1563.64 496.48 1563.86 513.89 1564.25 531.31 1564.61 548.72 1564.76 566.14 1564.63 583.55 1564.27 600.97 1563.88 618.38 1563.65 635.8 1563.69 653.21 1564 670.63 1564.4 688.04 1564.7 705.46 1564.74 722.87 1564.51 740.29 1564.11 757.7 1563.76 775.12 1563.63 792.53 1563.79 809.95 1564.15 827.36 1564.54 844.78 1564.75 862.19 1564.68 879.61 1552.44 879.39 1540.2 879.21 1527.96 879.08 1515.72 879.01 1503.48 879 1491.23 879.06 1478.99 879.18 1466.75 879.35 1454.51 879.56 1442.27 879.8 1430.03 880.05 1417.79 880.3 1405.55 880.53 1393.3 880.73 1381.06 880.88 1368.82 880.97 1356.58 880.99 1344.34 880.96 1332.1 880.86 1319.86 880.7 1307.62 880.5 1295.37 880.27 1283.13 880.02 1270.89 879.77 1258.65 879.53 1246.41 879.32 1234.17 879.16 1221.93 879.05 1209.69 879 1197.44 879.01 1185.2 879.09 1172.96 879.23 1160.72 879.42 1148.48 879.64 1136.24 879.89 1124 880.14 1111.76 880.38 1099.51 880.6 1087.27 880.78 1075.03 880.91 1062.79 880.98 1050.55 880.99 1038.31 880.93 1026.07 880.81 1013.83 880.64 1001.58 880.43 989.34 880.19 977.1 879.93 964.86 879.68 952.62 879.45 940.38 879.26 928.14 879.11 915.9 879.02 903.65 879 891.41 879.03 879.17 879.13 866.93 879.29 854.69 879.49 842.45 879.72 830.21 879.97 817.97 880.22 805.72 880.46 793.48 880.67 781.24 880.83 769 880.94 756.76 880.99 744.52 880.98 732.28 880.9 720.04 880.76 707.79 880.57 695.55 880.35 683.31 880.1 671.07 879.85 658.83 879.6 646.59 879.38 634.35 879.2 622.11 879.08 609.86 879.01 597.62 879 585.38 879.06 573.14 879.18 560.9 879.35 548.66 879.56 536.42 879.8 524.18 880.06 511.93 880.31 499.69 880.54 487.45 880.73 475.21 880.88 462.97 880.97 450.73 880.99 438.49 880.96 426.25 880.86 414 880.7 401.76 880.5 389.52 880.27 377.28 880.02 365.04 879.76 352.8 879.53 340.56 879.32 328.32 879.16 316.07 879.05 303.83 879 291.59 879.01 279.35 879.09 267.11 879.23 254.87 879.42 242.63 879.64 230.39 879.89 218.14 880.14 205.9 880.39 193.66 880.61 181.42 880.79 169.18 880.91 156.94 880.98 144.7 880.99 132.46 880.93 120.21 880.81 107.97 880.64 95.73 880.43 83.49 880.19 71.25 879.93 59.01 879.68 46.77 879.45 34.53 879.26 22.28 879.11 3.83 874.07 -2.32 859.25 -2.05 849.37 -1.59 839.5 -1.03 829.62 -0.47 819.75 0.4 804.93 1.3 800 13.86 793.82 26.33 787.63 38.71 781.41 51.01 775.15 63.25 768.85 75.45 762.5 87.62 756.11 99.79 749.69 111.98 743.25 124.21 736.82 136.51 730.42 148.87 724.06 161.32 717.76 173.84 711.54 186.44 705.4 199.11 699.35 211.83 693.37 224.59 687.46 237.37 681.59 250.16 675.74 262.92 669.87 275.64 663.96 288.32 657.96 300.94 651.87 313.49 645.65 325.97 639.29 338.39 632.79 350.75 626.16 363.06 619.42 375.34 612.59 387.61 605.72 399.88 598.84 412.16 592.01 424.47 585.26 436.83 578.64 449.23 572.19 461.69 565.92 474.21 559.85 486.77 553.98 499.38 548.29 512.03 542.74 524.71 537.3 537.39 531.92 550.08 526.53 562.75 521.07 575.39 515.49 588.01 509.72 600.58 503.74 613.11 497.5 625.6 491 638.05 484.25 650.46 477.27 662.85 470.11 675.22 462.81 687.58 455.45 699.94 448.11 712.32 440.85 724.71 433.76 737.13 426.9 749.58 420.32 762.07 414.05 774.58 408.11 787.12 402.48 799.68 397.12 809.42 396.75 819.16 396.46 828.9 396.22 838.64 395.99 848.38 395.72 858.12 395.38 867.86 394.93 877.59 394.33 887.33 393.55 897.07 392.59 906.81 391.41 916.54 390.03 926.27 388.43 936.01 386.64 945.74 384.68 955.47 382.58 965.2 380.36 974.93 378.07 984.66 375.75 994.38 373.45 1004.11 371.2 1013.83 369.05 1023.55 367.04 1033.27 365.19 1042.99 363.54 1052.71 362.1 1062.43 360.88 1072.14 359.88 1081.86 359.09 1091.57 358.49 1101.28 358.06 1111 357.77 1120.71 357.58 1130.41 357.43 1140.12 357.3 1149.83 357.13 1159.54 356.88 1169.25 356.5 1178.95 355.97 1188.66 355.25 1198.36 354.31 1208.07 353.15 1217.77 351.75 1227.48 350.13 1237.18 348.3 1246.89 346.28 1256.59 344.1 1266.3 341.79 1276.01 339.41 1285.71 336.99 1295.42 334.59 1305.13 332.25 1314.84 330.02 1324.55 327.93 1334.26 326.03 1343.98 324.33 1353.69 322.87 1363.4 321.64 1373.12 320.66 1382.84 319.9 1392.56 319.36 1402.28 319 1412 318.79 1421.73 318.68" fill="url(#uuunion-grad3)" filter="url(#uuunion-blur2)"></path></svg>